<svg xmlns="http://www.w3.org/2000/svg" width="177" height="177" viewBox="0 0 177 177">
<g>
<path d="M 75.65 175.87 C57.64,173.55 38.99,163.87 25.26,149.69 C8.84,132.75 0.73,112.77 0.61,89.00 C0.47,60.77 12.75,35.62 35.03,18.47 C66.46,-5.70 110.78,-5.67 142.00,18.55 C158.40,31.28 169.30,47.98 174.25,68.00 C177.16,79.74 177.13,97.14 174.18,109.23 C165.56,144.55 135.54,171.48 99.80,175.97 C90.42,177.14 85.41,177.12 75.65,175.87 ZM 133.38 122.42 C141.13,117.51 147.93,106.89 149.49,97.25 L 150.18 93.00 L 143.09 93.00 C136.63,93.00 136.00,93.18 136.00,95.03 C136.00,98.36 133.11,104.28 129.82,107.68 C123.72,113.99 117.13,114.46 111.18,109.02 C107.66,105.80 104.06,98.87 104.02,95.25 C104.00,93.13 103.59,93.00 96.87,93.00 L 89.74 93.00 L 90.37 96.91 C91.85,106.15 97.66,115.98 104.59,120.96 C110.63,125.30 113.21,126.00 121.65,125.63 C127.48,125.37 129.64,124.78 133.38,122.42 ZM 44.62 122.25 C46.93,112.66 54.17,105.00 60.92,105.00 C67.48,105.00 75.36,113.13 76.65,121.24 L 77.26 125.00 L 84.13 125.00 C92.02,125.00 91.93,125.17 89.11,116.09 C83.60,98.40 69.58,88.63 55.09,92.39 C44.97,95.01 36.42,103.77 32.88,115.14 C29.86,124.85 29.93,125.00 37.48,125.00 C43.72,125.00 43.99,124.90 44.62,122.25 ZM 69.13 83.47 C77.90,80.48 85.20,72.27 88.93,61.20 C92.31,51.18 92.16,50.86 84.43,51.20 L 77.85 51.50 L 76.12 56.63 C72.74,66.64 67.90,70.99 60.12,71.00 C56.28,71.00 55.21,70.47 51.55,66.75 C48.66,63.82 46.81,60.72 45.59,56.75 L 43.81 51.00 L 37.41 51.00 C31.43,51.00 31.00,51.15 31.01,53.25 C31.02,54.49 31.69,57.71 32.51,60.42 C38.01,78.55 54.01,88.62 69.13,83.47 ZM 104.00 80.82 C104.00,77.31 107.85,70.34 111.60,67.04 C116.36,62.86 123.33,62.72 128.07,66.71 C131.31,69.44 135.97,78.00 135.99,81.25 C136.00,82.75 137.00,83.00 143.00,83.00 C150.91,83.00 150.82,83.13 148.43,75.09 C144.09,60.45 132.24,50.00 120.00,50.00 C106.44,50.00 93.57,62.79 90.47,79.33 L 89.78 83.00 L 96.89 83.00 C103.53,83.00 104.00,82.86 104.00,80.82 Z" fill="currentColor"/>
</g>
</svg>